<svg width="291" height="148" viewBox="0 0 291 148" fill="none" xmlns="http://www.w3.org/2000/svg"><path d="M101.527 137.035c22.905 0 41.473-18.568 41.473-41.473 0-22.905-18.568-41.474-41.473-41.474-22.905 0-41.473 18.569-41.473 41.474 0 22.905 18.568 41.473 41.473 41.473z" fill="#D3E3FD"/><path d="M103.119 99.23l17.626 10.129 3.43-.798-10.528-16.669-10.528 7.338zm5.664-10.13l-10.13 5.902-20.417-11.724 1.914-1.994 28.633 7.816z" fill="#4C8DF6"/><path d="M74.887 98.99l17.227 9.969.479-.239c.957-.558 1.276-1.675.877-2.632l-.798-1.834-4.865-4.228-9.89-2.073c-.478-.08-1.036 0-1.515.239l-1.436.877-.08-.08z" fill="#1B6EF3"/><path d="M125.293 84.395c0 1.914-2.233 5.025-4.546 6.3l-19.78 11.485c-2.153 1.197-4.546 1.915-7.018 1.915h-4.546l-3.749.079-2.712-1.595 32.142-18.583c1.196-.718 3.031-1.356 4.865-1.595 1.755-.24 3.43-.16 4.626.478.16.08.239.16.319.24.08.08.16.239.239.319.08.239.16.558.16.877v.08z" fill="#7CACF8"/><path d="M81.348 65.334c-.08-1.914-.399-3.749-.798-5.583-.797.479-1.595.957-2.313 1.515-11.484 7.816-17.785 20.338-18.104 33.179 12.84-3.35 21.853-15.313 21.215-29.111z" fill="#A8C7FA"/><path opacity=".5" d="M220.5 124c31.204 0 56.5-25.296 56.5-56.5S251.704 11 220.5 11 164 36.296 164 67.5s25.296 56.5 56.5 56.5z" fill="#D3E3FD"/><path d="M34.7 121.4a7.7 7.7 0 100-15.4 7.7 7.7 0 100 15.4zM172.518 47c-1.024 0-1.536-.697-1.946-1.395-2.15-4.383-5.53-7.57-10.036-9.762-.819-.399-1.536-.897-1.536-1.893s.819-1.494 1.639-1.893c4.301-2.092 7.68-5.18 9.831-9.463.41-.897.922-1.594 1.946-1.594 1.126 0 1.638.797 2.048 1.594 2.15 4.283 5.53 7.471 9.934 9.563 2.048.996 2.15 2.39.204 3.487-3.174 1.793-6.042 3.686-8.192 6.574-.82 1.096-1.332 2.192-1.946 3.288-.41.797-.922 1.394-1.946 1.494z" fill="#FFD563"/><path d="M245.904 63.309h-50.665V55.36c0-4.371 3.676-7.947 8.146-7.947h34.274c4.47 0 8.146 3.576 8.146 7.947v7.948h.099z" fill="#34A653"/><path d="M245.904 69.965h-50.665v-7.948c0-4.37 3.676-7.947 8.146-7.947h34.274c4.47 0 8.146 3.576 8.146 7.947v7.948h.099z" fill="#F8BA07"/><path d="M245.904 76.621h-50.665v-7.947c0-4.372 3.676-7.948 8.146-7.948h34.274c4.47 0 8.146 3.576 8.146 7.948v7.947h.099z" fill="#E84436"/><path d="M195.239 65.196l32.188 7.45c3.775.895 7.848 0 10.927-2.185l7.55-5.563v17.385c0 4.371-3.675 7.948-8.146 7.948h-34.273c-4.471 0-8.146-3.577-8.146-7.948V65.196h-.1z" fill="#4383F2"/><path d="M114 30.6a6.2 6.2 0 100-12.4 6.2 6.2 0 000 12.4z" fill="#D3E3FD"/><path d="M104.646 5.957l-8.935 8.598 14.215 14.771 8.935-8.598-14.215-14.772z" fill="#D3E3FD"/><path d="M100.2 16.4a6.2 6.2 0 100-12.4 6.2 6.2 0 000 12.4z" fill="#7CACF8"/><path d="M52 87c18.778 0 34-15.222 34-34S70.778 19 52 19 18 34.222 18 53s15.222 34 34 34z" fill="#D3E3FD"/><path d="M60.25 63.866c-.632 0-1.265 0-1.807-.181-.903-.18-1.626-.632-2.168-1.084a3.617 3.617 0 01-1.174-3.252c0-.723.27-1.446.723-2.168.722-1.265 1.897-2.44 3.432-3.343a12.83 12.83 0 014.788-1.806c1.175-.181 2.168-.181 3.162 0 .813.18 1.445.451 1.987.903 1.175.903 1.717 2.168 1.536 3.613-.09.904-.452 1.717-1.084 2.62-.723.994-1.716 1.897-2.89 2.71-1.446.904-2.891 1.446-4.518 1.807-.632.09-1.264.18-1.897.18h-.09zm5.15-9.215h-1.085c-1.355.18-2.62.633-3.704 1.446-1.174.722-1.987 1.445-2.53 2.439-.18.361-.36.722-.36.993 0 .452 0 .723.36.994.272.18.543.361.995.452.722.18 1.626.18 2.53 0 1.264-.271 2.438-.723 3.522-1.446.904-.542 1.626-1.174 2.168-1.897.362-.542.542-.993.633-1.355 0-.451 0-.813-.452-1.084-.271-.18-.542-.27-.994-.361-.361 0-.722-.09-1.084-.09v-.09z" fill="#7CACF8"/><path d="M37.123 55.193H65.76s-.18 18.337-13.1 18.429c-4.427 0-13.19.993-15.538-18.43z" fill="#7CACF8"/><path d="M51.487 51.489c6.413 0 11.834 2.258 13.64 5.24.452-.723.723-1.536.723-2.35 0-4.245-6.414-7.587-14.363-7.587-7.95 0-14.364 3.432-14.364 7.588 0 4.155.271 1.626.723 2.349 1.897-3.072 7.317-5.24 13.64-5.24z" fill="#7BAAF6"/><path d="M51.486 62.058c6.414 0 11.834-2.258 13.64-5.24-1.897-3.07-7.317-5.239-13.64-5.239-6.324 0-11.834 2.258-13.641 5.24 1.897 3.071 7.317 5.24 13.64 5.24z" fill="#606060"/><path opacity=".9" d="M51.395 62.149c8.083 0 14.635-3.438 14.635-7.679 0-4.24-6.552-7.678-14.635-7.678-8.082 0-14.634 3.437-14.634 7.678 0 4.24 6.552 7.679 14.634 7.679z" fill="#fff"/><path d="M51.395 60.703c7.085 0 12.828-2.79 12.828-6.233 0-3.442-5.743-6.233-12.828-6.233-7.084 0-12.828 2.79-12.828 6.233 0 3.443 5.744 6.233 12.828 6.233z" fill="#7CACF8"/><path d="M51.395 60.703c4.969 0 9.305-1.355 11.383-3.343-2.169-1.987-6.414-3.342-11.383-3.342-4.968 0-9.305 1.355-11.382 3.343 2.168 1.987 6.414 3.342 11.382 3.342z" fill="#3B4043"/><path d="M59 36.13c0-3.952-3.111-7.13-7-7.13s-7 3.178-7 7.13 2.333 6.271 5.444 6.959l1.297 1.718a.406.406 0 00.691 0l1.296-1.804a7.248 7.248 0 005.186-6.959l.086.086z" fill="#fff"/><path d="M48.585 34.627c-.39.358-.585.806-.585 1.254 0 .268 0 .537.195.806.098.179.293.447.39.537l3.122 2.686.195.09h.391s.097 0 .195-.09l2.927-2.865c.195-.18.292-.358.39-.538.097-.268.195-.537.195-.805 0-.448-.293-.896-.683-1.254-.39-.358-.878-.448-1.366-.448-.293 0-.585.09-.878.269-.39.268-.78.537-1.073.806l-1.17-.806c-.293-.18-.586-.18-.879-.18-.293 0-.488 0-.683.18-.195.09-.39.179-.585.358h-.098z" fill="#FFD563"/></svg>