<svg xmlns="http://www.w3.org/2000/svg" width="120" height="120" viewBox="0 0 120 120"><path fill="none" d="M0 0h120v120H0z"/><path d="M0 60.3c0 30.8 25 55.8 55.8 55.8h33.5c12.3 0 22.3-10 22.3-22.3V60.3c0-30.8-25-55.8-55.8-55.8S0 29.5 0 60.3z" fill="#ffebeb" fill-opacity=".4"/><path d="M103.9 65.7l-5.8-4.6-2.4-1.9c-1.9-1.5-5.3-2.1-7.5-1.2L35 78.9c-2.2.9-2.4 2.8-.5 4.3l2.5 1.9 5.8 4.6 14.4 11.4c1.9 1.5 5.3 2.1 7.5 1.2l47-18.4V71.8l-7.8-6.1z" fill="#ffebeb"/><path d="M16.2 89.3l2.7 1.6 6.4 3.7 15.9 9.2c2.1 1.2 5.5 1.3 7.6.1l49.5-28.4c2.1-1.2 2-3.1-.1-4.4l-16-9.2-6.4-3.7-2.7-1.5c-2.1-1.2-5.5-1.3-7.6-.1L16 85c-2 1.1-2 3.1.2 4.3z" fill="#ffebeb"/><path d="M34.9 77l2.5 1.9 5.8 4.6 14.4 11.4c1.9 1.5 5.3 2.1 7.5 1.2l53.2-20.9c2.2-.9 2.4-2.8.5-4.3l-14.4-11.4-5.8-4.6-2.5-1.9c-1.9-1.5-5.3-2.1-7.5-1.2L35.4 72.7c-2.2.9-2.4 2.8-.5 4.3z" fill="#f4b385"/><path d="M37.4 79l5.8 4.6 61.1-24-5.8-4.6-61.1 24z" fill="#e46962"/><path d="M16.2 83.1l2.7 1.6 6.4 3.7 15.9 9.2c2.1 1.2 5.5 1.3 7.6.1l49.5-28.4c2.1-1.2 2-3.1-.1-4.4l-16-9.2-6.4-3.7-2.7-1.5c-2.1-1.2-5.5-1.3-7.6-.1L16 78.8c-2 1.2-2 3.1.2 4.3z" fill="#fff0d1"/><path d="M18.9 84.7l6.4 3.7 56.9-32.7-6.4-3.7-56.9 32.7z" fill="#ffddab"/><path d="M55.6 77.7l-16.5 9.5c-.8.5-.8 1.7 0 2.2l3.2 1.8c1 .6 2.2.6 3.2 0L62 81.7c.8-.5.8-1.7 0-2.2l-3.2-1.8c-1-.6-2.2-.6-3.2 0z" fill="#fff"/><path d="M82.8 70.1c3.4 0 6.2-1.5 6.2-3.4s-2.8-3.4-6.2-3.4c-3.4 0-6.2 1.5-6.2 3.4s2.8 3.4 6.2 3.4z" fill="#f4b385"/><path d="M24.6 26.5L50.5 17c2.7-1 5 .4 5 3.2v21c0 2.8-2.2 5.8-5 6.8l-7 2.6-5.9 10.2-5.9-5.8-7 2.6c-2.7 1-5-.4-5-3.2v-21c0-2.8 2.2-5.8 4.9-6.9z" fill="#ff8577"/><path d="M39.8 39.2c0 .1-.1.3-.3.3l-2.1 1c-.2.1-.4-.1-.4-.3l.2-10.2c0-.2.1-.4.3-.5l3.3-1.6c.3-.1.6.1.5.4l-1.5 10.9zm-.5 6.9c1.1-1.3 1.4-2.9.6-3.5-.8-.6-2.3 0-3.4 1.3s-1.4 2.9-.6 3.5c.8.6 2.3 0 3.4-1.3z" fill="#fff"/></svg>