<svg width="60" height="24" viewBox="0 0 60 24" fill="none" xmlns="http://www.w3.org/2000/svg"><path d="M19.501 10.175c0-.717-.062-1.403-.178-2.063H9.944v3.875h5.384a4.613 4.613 0 01-1.99 3.027v2.477h3.194c1.88-1.733 2.97-4.284 2.97-7.316z" fill="#4285F4"/><path d="M9.95 19.9c2.686 0 4.938-.89 6.582-2.41l-3.194-2.476c-.896.602-2.042.958-3.394.958-2.597 0-4.802-1.754-5.592-4.116H1.058v2.556c1.644 3.251 5 5.488 8.892 5.488z" fill="#34A853"/><path d="M4.357 11.856a5.938 5.938 0 010-3.812V5.488H1.063a9.884 9.884 0 00.005 8.923l3.289-2.555z" fill="#FBBC05"/><path d="M9.95 3.928c1.471 0 2.786.508 3.823 1.492l2.833-2.828C14.883.985 12.636 0 9.95 0 6.059 0 2.702 2.236 1.068 5.488l3.294 2.556c.786-2.362 2.99-4.116 5.588-4.116z" fill="#EA4335"/><path d="M27.865 11.945v6.907H25.66V1.571h5.85c1.487 0 2.749.503 3.786 1.508 1.052 1.006 1.581 2.231 1.581 3.676 0 1.477-.529 2.713-1.581 3.703-1.021.99-2.283 1.482-3.786 1.482l-3.645.005zm0-8.232v6.085h3.692c.88 0 1.607-.299 2.183-.9.592-.603.886-1.315.886-2.143 0-.811-.294-1.518-.886-2.12-.576-.618-1.303-.927-2.183-.927l-3.692.005zM42.38 6.509c1.63 0 2.917.44 3.86 1.325.943.885 1.414 2.1 1.414 3.64v7.378h-2.11v-1.681h-.095c-.91 1.362-2.126 2.048-3.644 2.048-1.294 0-2.378-.388-3.247-1.168-.87-.78-1.304-1.754-1.304-2.922 0-1.236.46-2.215 1.377-2.943.917-.728 2.142-1.095 3.676-1.095 1.31 0 2.388.241 3.237.728v-.513c0-.78-.304-1.44-.911-1.985a3.095 3.095 0 00-2.132-.817c-1.23 0-2.204.53-2.922 1.582l-1.943-1.241c1.069-1.556 2.65-2.336 4.745-2.336zm-2.848 8.667c0 .586.246 1.073.733 1.46a2.674 2.674 0 001.712.587c.927 0 1.755-.35 2.483-1.047.728-.696 1.089-1.519 1.089-2.456-.686-.55-1.644-.827-2.875-.827-.895 0-1.644.22-2.241.66-.603.434-.901.973-.901 1.623zm20.167-8.368L52.34 24h-2.278l2.734-6.017-4.839-11.175h2.398l3.499 8.572h.047l3.404-8.572h2.393z" fill="#3C4043"/></svg>