<svg width="304" height="196" viewBox="0 0 304 196" fill="none" xmlns="http://www.w3.org/2000/svg"><path d="M90.28 121.71c28.873 0 52.279-23.407 52.279-52.28s-23.406-52.28-52.28-52.28C61.407 17.15 38 40.557 38 69.43s23.406 52.28 52.28 52.28z" fill="#fff"/><path fill-rule="evenodd" clip-rule="evenodd" d="M77.653 69.652c0-.886 0-1.772-.222-2.547h-11.74v4.873h6.645c-.332 1.55-1.108 2.99-2.437 3.877v3.212h3.988c2.326-2.215 3.655-5.427 3.655-9.304l.11-.111z" fill="#4285F4"/><path fill-rule="evenodd" clip-rule="evenodd" d="M65.469 82.5c3.544 0 6.424-1.218 8.64-3.211l-4.21-3.323c-1.218.775-2.658 1.218-4.43 1.218-3.434 0-6.314-2.326-7.31-5.427h-4.32v3.433c2.104 4.32 6.535 7.31 11.63 7.31z" fill="#34A853"/><path fill-rule="evenodd" clip-rule="evenodd" d="M58.602 71.978c-.222-.775-.443-1.661-.443-2.548 0-.886.11-1.772.443-2.547v-3.434H54.06c-.887 1.772-1.44 3.766-1.44 5.981 0 2.216.553 4.21 1.44 5.981l4.54-3.433z" fill="#FBBC04"/><path fill-rule="evenodd" clip-rule="evenodd" d="M65.469 61.566c1.883 0 3.655.665 4.984 1.994l3.655-3.766c-2.215-2.104-5.206-3.434-8.64-3.434-5.094 0-9.414 2.99-11.63 7.31l4.32 3.434c.997-3.101 3.877-5.427 7.31-5.427v-.11z" fill="#EA4335"/><path fill-rule="evenodd" clip-rule="evenodd" d="M94.046 68.101c.664 0 1.218-.11 1.772-.443.443-.332.886-.664 1.107-1.218.222-.443.333-.997.333-1.55 0-.555-.111-.998-.333-1.551-.221-.444-.664-.887-1.107-1.219-.443-.332-1.108-.443-1.772-.443H90.28v6.313h3.766v.111zm-6.757-9.414h6.757c1.107 0 2.215.221 3.212.775.996.554 1.772 1.218 2.326 2.215.553.997.886 1.994.886 3.212 0 1.219-.333 2.215-.886 3.212-.554.997-1.33 1.662-2.326 2.216-.997.553-1.994.775-3.212.775H90.39v7.864h-3.1v-20.27zm21.045 17.057c.664-.333 1.107-.886 1.44-1.44.332-.665.553-1.219.553-1.994a6.398 6.398 0 00-1.55-.554c-.554-.11-1.219-.221-1.772-.221-1.219 0-2.105.221-2.659.664-.553.443-.886 1.108-.886 1.773 0 .664.222 1.218.776 1.66.553.444 1.218.665 1.993.665.776 0 1.44-.221 2.105-.553zm-5.428 2.547c-.775-.443-1.439-.997-1.883-1.772-.443-.775-.664-1.55-.664-2.547 0-1.551.554-2.659 1.661-3.545 1.108-.886 2.548-1.33 4.32-1.33 1.772 0 1.661 0 2.326.223.665.11 1.218.332 1.661.553v-.775c0-.886-.332-1.662-.996-2.215-.665-.554-1.551-.886-2.548-.886-.997 0-1.44.11-2.104.443-.665.332-1.219.775-1.551 1.329l-2.215-1.662c.664-.886 1.44-1.55 2.547-2.104.997-.443 2.215-.776 3.434-.776 2.104 0 3.766.554 4.873 1.551 1.108.997 1.773 2.548 1.773 4.43v9.083h-3.102V76.52h-.111c-.443.665-.996 1.108-1.772 1.55-.775.444-1.661.665-2.658.665-.997 0-1.994-.221-2.769-.664l-.222.221zm16.615-.221l-6.203-13.402h3.544l4.209 9.636h.111l4.098-9.636h3.545l-9.193 20.27h-3.323l3.212-6.757v-.11z" fill="#5F6368"/><path d="M158.288 153.056c-2.769-1.772-2.548-5.76.221-7.31l30.017-17.279 2.215 42.865-32.453-18.276zm-65.461 4.43l17.057-9.858 1.551 30.349-18.608-10.744c-3.766-2.215-3.766-7.643 0-9.858v.111z" fill="#D2E3FD"/><path d="M118.413 177.866l89.496-51.061c4.652-2.658 7.421-7.532 7.421-12.848v-64.02c0-5.65-6.203-9.305-11.076-6.425l-89.496 51.061c-4.652 2.659-7.421 7.532-7.421 12.849v64.131c0 5.649 6.203 9.304 11.076 6.424v-.111z" fill="#7CACF8"/><path d="M169.364 135.334l-47.296 27.247c-1.218.665-2.658-.111-2.658-1.44v-6.756c0-1.329 0-3.323 2.437-4.209l47.074-27.137c1.218-.664 2.658.111 2.658 1.44v7.532c0 1.218-.775 2.547-2.215 3.323z" fill="#A8C7FA"/><path d="M130.375 115.729l-8.528 4.762c-1.662.997-3.655-.221-3.655-2.104v-10.744c0-.886 0-2.88 2.104-3.766l8.861-4.984c1.662-.997 3.655.221 3.655 2.104v11.187c0 1.772-1.44 2.658-2.547 3.545h.11z" fill="#FFD563"/><path d="M199.38 169.559l35.444-24.479c3.212-2.215 9.858.222 9.858-3.766v-35.001l-40.539 25.919-4.652 37.216-.111.111z" fill="#1B6EF3"/><path d="M204.032 163.357s-1.661 9.968-8.971 4.763c-6.757-4.763-9.304-4.431-9.304-4.431l.332-38.877 18.054 7.421v31.013l-.111.111z" fill="#1B6EF3"/><path d="M190.077 116.061l33.228-19.716c3.877-2.326 8.64-2.99 13.07-1.55 1.329.443 2.769 1.107 4.098 2.104 6.203 4.542 4.099 9.526 4.099 9.526l-40.539 26.14s-8.308 3.544-14.953-1.883c-6.646-5.428-.111 0-.222-.111-4.652-3.877-4.098-11.298 1.219-14.399v-.111z" fill="#4C8DF6"/><path d="M190.187 155.603l33.782-20.048c3.988-2.326 8.861-3.101 13.292-1.661 1.44.443 2.88 1.107 4.209 2.104 0 0 .111 0 .221.111 4.209 3.101 3.988 9.525-.443 12.405l-36.773 23.703s-8.418 3.545-15.174-1.883c-6.757-5.427-.111 0-.222-.11-4.762-3.988-4.098-11.52 1.219-14.621h-.111zm15.285-29.02a3.095 3.095 0 01-3.101-3.101v-15.95c0-3.212.554-6.424 1.772-9.636 1.44-3.877 3.434-7.2 5.981-9.858 2.105-2.215 4.209-3.655 6.535-4.541 2.437-.886 4.985-.665 6.978.554 2.216 1.329 3.766 3.766 4.431 6.867.332 1.661.332 3.323.332 4.763v13.07a3.096 3.096 0 01-3.101 3.101 3.096 3.096 0 01-3.101-3.101V95.57c0-1.33 0-2.547-.222-3.655-.222-1.219-.775-2.215-1.44-2.548a1.979 1.979 0 00-1.772 0c-1.329.443-2.658 1.33-3.988 2.88-1.993 2.105-3.544 4.763-4.652 7.754-.886 2.547-1.439 4.873-1.329 7.421v15.949a3.096 3.096 0 01-3.101 3.102l-.222.11z" fill="#1B6EF3"/><path d="M225.963 134.448c0 .886-.221 1.661-.553 2.547a10.65 10.65 0 01-1.773 2.769 7.244 7.244 0 01-1.883 1.329c-.443.222-.886.222-1.329.222-.664 0-1.107-.443-1.44-.997-.221-.332-.332-.775-.332-1.218 0-1.108.111-2.105.554-2.991.443-1.108 1.108-1.994 1.883-2.769.443-.443.997-.886 1.661-1.108.333-.11.776-.221 1.219-.221.775 0 1.329.332 1.661.997.222.553.332.996.332 1.661v-.221z" fill="#062E6F"/><path d="M220.647 149.954l3.212-1.44v-10.079h-3.212v11.519z" fill="#062E6F"/></svg>