<svg width="304" height="196" viewBox="0 0 304 196" fill="none" xmlns="http://www.w3.org/2000/svg"><path d="M194.624 128.503l-4.533 2.695-10.78 6.492-32.462 19.6c-3.553 2.205-9.31 2.328-12.863.368l-85.015-47.163c-3.552-1.96-3.43-5.267.123-7.472l32.585-19.6 10.78-6.493 4.532-2.695c3.553-2.205 9.31-2.327 12.863-.367l85.015 47.162c3.552 1.96 3.43 5.268-.123 7.473h-.122z" fill="#9FC7FF"/><path d="M187.519 74.602c-.49-.245-.857-.49-1.225-.735 3.063 1.593 4.778 2.573 1.225.735zm-100.083 2.94c-.367.245-.735.49-1.225.735-3.552 1.838-1.837.858 1.225-.735zm7.473-3.92c-2.083 1.102-5.145 2.695-7.473 3.92 4.288-3.063 2.205-7.105 7.473-3.92zm.245.001h-.123c2.328-1.226 3.185-1.593.123 0z" fill="#fff"/><path d="M151.504 161.455l38.22-23.03 12.618-7.595 5.39-3.185c4.287-2.573 4.287-6.493.122-8.698l-49.612-27.562c16.537-10.168 30.012-18.498 34.912-21.438 11.025 6.125 22.05 12.373 33.075 18.498a8612.807 8612.807 0 0130.625 17.027c2.695 1.47 3.43.613 3.063 2.818-.368 2.205-6.37 9.555-8.208 10.657-5.267 3.063-18.62 11.393-34.422 21.193-21.683 13.475-48.02 29.767-64.435 39.935-2.818 1.715-4.9.735-7.718-.858-16.292-10.045-40.302-23.275-59.412-35.035a4.587 4.587 0 010-7.84c.612-.367 1.347-.857 1.96-1.225l48.51 26.95c4.165 2.328 10.902 2.083 15.19-.49l.122-.122z" fill="#fff"/><path opacity=".5" d="M150.279 96.407l42.14 23.398c3.553 1.96 3.43 5.267-.122 7.472l-4.533 2.695-10.78 6.493-32.462 19.6c-3.553 2.205-9.31 2.327-12.863.367l-41.282-22.907c14.087-8.698 33.932-20.948 51.45-31.85 2.817-1.715 5.635-3.553 8.33-5.145l.122-.123z" fill="#D3E3FD"/><path fill-rule="evenodd" clip-rule="evenodd" d="M251.831 118.947c6.003-3.798 10.29-10.903 10.535-18.13.368-7.227-4.042-12.25-11.269-11.393-.588.065-1.628-.53-2.656-1.12-.902-.516-1.795-1.027-2.367-1.085-1.103 0-2.083-.49-3.063-.98a5574.5 5574.5 0 00-2.766-1.23l-.024-.011c-13.645-6.07-27.248-12.121-40.207-19.461l-.35-.196c-2.955-1.657-6.028-3.38-9.328-3.969-2.905-.519-3.789.808-5.257 3.014-.265.398-.549.824-.868 1.273 2.337 1.104 3.711 1.932 5.142 2.795.949.572 1.923 1.16 3.219 1.852l-7.679 4.73-.001.001c-8.617 5.306-21.874 13.47-36.45 22.473h-.123c-21.437 13.352-45.815 28.42-62.597 38.71a4.722 4.722 0 00-1.494 1.469 596.778 596.778 0 00-9.041 5.267c-.159.079-.266.21-.388.358-.067.081-.138.168-.225.255.082.041.163.095.245.149.163.109.327.218.49.218 1.899.368 3.828.705 5.758 1.042 1.929.336 3.858.673 5.757 1.041.245 0 .735.367.858.612.324.585.649 1.16.971 1.732.894 1.586 1.77 3.14 2.581 4.761.245.49.613.98 1.348.98 2.02.367 4.011.735 6.002 1.102 1.991.368 3.981.735 6.002 1.103.368.122.858.367.98.735l3.675 6.615c.123.245.49.612.858.612 4.165.735 8.207 1.47 12.25 2.205.367.123.857.368.98.735l3.675 6.615c.122.245.49.613.857.613 3.675.735 7.228 1.347 10.903 1.96 1.47.245 2.45.612 2.94 2.082.082.327.272.654.463.98.095.164.19.327.272.49.473.946.997 1.893 1.539 2.871.3.542.605 1.094.911 1.662a90.188 90.188 0 014.655-2.695 141.1 141.1 0 013.024-1.727c.114.008.209.013.284.013l2.763-1.712c.718-.404 1.431-.813 2.136-1.229l.123.122v-.292l7.265-4.498.004-.003a38460.648 38460.648 0 0052.144-32.323l7.744-4.806.035-.021.004-.003c12.306-7.638 22.263-13.818 26.639-16.363a1.46 1.46 0 00.052-.032l.07.032z" fill="#fff"/><path d="M257.834 90.65l-55.247-30.013c-5.635-3.062-12.618-2.572-17.763 1.348l-3.797 2.817 59.045 32.585s6.737-10.413 17.762-6.738z" fill="#A8C7FA"/><path d="M184.334 87.588l45.815 25.725m-66.273-13.598l45.815 25.725m-66.394-13.72l45.815 25.725m-66.273-13.597l45.815 25.725m-45.815-1.103l25.358 14.945" stroke="#D3E3FD" stroke-width="4" stroke-linecap="round" stroke-linejoin="round"/><path d="M194.256 109.638l-4.532 2.695-10.78 6.492-32.463 19.6c-3.552 2.205-9.31 2.328-12.862.368L48.604 91.63c-3.553-1.96-3.43-5.267.122-7.472l32.585-19.6 10.78-6.493 4.533-2.695c3.552-2.205 9.31-2.327 12.862-.367l85.015 47.162c3.553 1.96 3.43 5.268-.122 7.473h-.123z" fill="#4C8DF6"/><path d="M102.381 73.745l-6.615-4.043c-1.347-.857-1.347-2.695 0-3.552l6.248-3.92a3.76 3.76 0 013.92 0l6.492 4.165c1.225.858 1.225 2.695 0 3.553l-6.125 3.797c-1.225.735-2.695.735-3.797 0h-.123z" fill="#FFD563"/><path d="M72.737 81.217l45.57 25.358c1.347.735 1.347 2.695 0 3.552l-4.9 2.818c-1.225.735-2.818.735-4.165 0l-45.57-25.358c-1.348-.735-1.348-2.695 0-3.552l4.9-2.818c1.224-.735 2.817-.735 4.165 0z" fill="#7CACF8"/><path d="M182.496 35.28a27.133 27.133 0 00-27.195-27.195 27.134 27.134 0 00-27.195 27.195c0 13.23 9.555 24.377 22.05 26.705l4.41 7.472a1.26 1.26 0 002.083 0l4.532-7.717c12.128-2.695 21.315-13.598 21.315-26.583v.123z" fill="#fff"/><path d="M152.606 39.69c0-1.348.245-2.45.858-3.43.612-.98 1.592-2.083 2.94-3.308.857-.735 1.47-1.347 1.837-1.96.368-.612.613-1.225.613-1.96 0-.735-.368-1.592-.98-2.205-.613-.612-1.47-.857-2.573-.857-1.102 0-1.96.367-2.695.98-.735.612-1.225 1.47-1.47 2.45l-4.777-1.96c.49-1.715 1.592-3.308 3.062-4.533 1.593-1.347 3.43-1.96 5.758-1.96 2.327 0 3.307.368 4.655.98 1.347.735 2.45 1.593 3.185 2.818.735 1.225 1.102 2.572 1.102 4.042 0 1.47-.245 2.695-.857 3.675a14.91 14.91 0 01-2.695 3.185c-.98.858-1.593 1.593-1.96 2.328-.368.612-.49 1.47-.49 2.45v.612h-5.513V39.69zm.123 10.535c-.735-.735-1.103-1.593-1.103-2.573s.368-1.837 1.103-2.572c.735-.735 1.592-.98 2.572-.98s1.838.367 2.573.98c.735.735.98 1.592.98 2.572s-.368 1.838-.98 2.573c-.735.735-1.593 1.102-2.573 1.102s-1.837-.367-2.572-1.102z" fill="#4C8DF6"/></svg>