<svg width="304" height="160" viewBox="0 0 304 160" fill="none" xmlns="http://www.w3.org/2000/svg"><path d="M222.547 148.761l19.022-10.943c3.031-1.739 3.031-6.112 0-7.852l-19.022-10.943-26.244 15.096 26.244 14.642z" fill="#FFE49A"/><path d="M216.979 150.478l-118.4-42.824a5.492 5.492 0 01-3.63-5.157v-86.67c0-3.804 3.797-6.455 7.388-5.157l118.4 42.819a5.491 5.491 0 013.63 5.157v86.675c0 3.804-3.796 6.455-7.388 5.157z" fill="#FFD563"/><path d="M215.514 60.512l-30.756-11.02c-2.521-.906-5.182.955-5.182 3.627v33.62a3.857 3.857 0 002.561 3.628l30.755 11.02c2.522.906 5.183-.955 5.183-3.627V64.14a3.857 3.857 0 00-2.561-3.628z" fill="#FFF0D1"/><path d="M190.263 85.978c5.221 1.756 8.026-.381 8.026-.381l14.782-8.89v-9.386c-.039-.696-.882-2.065-3.049-2.17-2.333-.116-6.169.364-8.38 3.246-1.907 2.48-2.095-.132-2.095-.132l-2.954 5.62c-1.236 1.171-2.384 1.558-3.836 2.436-.748.452-2.887 1.772-4.334 3.114-1.513 1.402-1.668 2.275-1.962 3.522.704 1.9 3.797 3.026 3.797 3.026l.005-.005z" fill="#FFE49A"/><path d="M213.07 76.707v-9.386c-.045-.69-.881-2.065-3.049-2.17-2.333-.116-6.168.364-8.38 3.246-1.907 2.48-2.095-.132-2.095-.132l-.493.939 12.005 8.718 2.017-1.21-.005-.005z" fill="#FFBB29"/><path d="M198.304 85.182s-3.359 2.187-8.042 0c0 0-3.098-.331-3.802-2.23l-.122 2.849c.499 1.783 3.353 2.744 3.353 2.744.056.016.111.027.166.044 3.653.96 7.544.282 10.692-1.795l11.007-7.26a2.76 2.76 0 001.514-2.474v-2.11l-14.766 10.232z" fill="#FFD563"/><path d="M213.075 67.933c-.499 2.049-1.419 2.822-1.419 2.822a4.056 4.056 0 01-2.211.994c-.987.121-1.935-.116-2.678-.42a2.957 2.957 0 00-1.646-.166 3.13 3.13 0 00-1.529.751l-.483.431-3.852 6.333c-.371.326-.637.74-.803 1.187a2.806 2.806 0 00-.05 1.822c.488 1.508.648 3.148.698 4.097l6.756-3.81 7.222-5.267v-8.774h-.005z" fill="#FFD563"/><path d="M204.962 68.623l-1.053-.74-2.084-1.375a1.572 1.572 0 00-2.111.276s-6.219 8.984-6.956 9.53c1.918.475 4.534 2.016 5.681 3.55.166-.447.432-.86.804-1.187l3.852-6.333.482-.43a3.21 3.21 0 011.53-.751l.149-.177a1.617 1.617 0 00-.299-2.369l.005.006z" fill="#FFCA57"/><path d="M101.398 22.52v8.28a2.63 2.63 0 001.74 2.474l66.733 24.134a1.816 1.816 0 002.438-1.7v-8.283a2.628 2.628 0 00-1.74-2.473l-66.738-24.134a1.816 1.816 0 00-2.438 1.7h.005z" fill="#fff"/><path d="M194.1 103.739L94.95 68.137v36.066a5.137 5.137 0 003.458 4.848l99.167 34.36V108.67a5.23 5.23 0 00-3.481-4.925l.006-.006z" fill="#FFBB29"/><path d="M170.592 68.22l-94.28-33.09C73.233 34.048 70 36.33 70 39.587v46.778c0 2.01 1.28 3.804 3.187 4.461l94.273 32.593c3.082 1.066 6.296-1.214 6.296-4.461v-46.28a4.728 4.728 0 00-3.164-4.457z" fill="#fff"/><path d="M108.348 46.205l4.683-5.301a1.331 1.331 0 012.156.22l7.616 13.313-9.19-.618-5.265-7.614z" fill="#fff"/><path d="M79.768 53.898v20.849c0 1.226.77 2.319 1.928 2.739l29.67 10.728c.992.359 2.045-.376 2.045-1.425V65.94a2.916 2.916 0 00-1.929-2.738l-29.67-10.728c-.991-.36-2.044.375-2.044 1.424z" fill="#7CACF8"/><path d="M82.64 58.017v3.214a.84.84 0 00.56.795l2.982 1.076a.852.852 0 001.142-.795v-3.213a.84.84 0 00-.56-.795l-2.982-1.077a.852.852 0 00-1.141.795zm.16 16.289l13.174 4.765c.427.154.87-.16.87-.608v-1.568a.65.65 0 00-.426-.607l-13.175-4.765a.647.647 0 00-.87.607v1.568c0 .27.172.514.427.608zm38.74 6.901l35.434 11.612a1.121 1.121 0 001.48-1.06v-1.121c0-.48-.305-.906-.765-1.06l-35.434-11.612a1.121 1.121 0 00-1.48 1.06v1.121c0 .48.305.906.765 1.06zm0 10.663l12.382 4.267a1.121 1.121 0 001.48-1.06v-1.12c0-.481-.305-.906-.765-1.06l-12.382-4.269a1.121 1.121 0 00-1.48 1.06v1.121c0 .48.305.906.765 1.06zm25.102-14.473l12.382 4.268a1.121 1.121 0 001.48-1.06v-1.12c0-.481-.305-.906-.765-1.06l-12.382-4.269a1.121 1.121 0 00-1.48 1.06v1.121c0 .48.305.906.765 1.06zm-16.279-7.527c.025-1.216-.64-2.216-1.484-2.233-.845-.017-1.55.955-1.574 2.172-.025 1.216.64 2.216 1.484 2.233.845.017 1.55-.955 1.574-2.171zm-5.429-1.702c.024-1.217-.64-2.217-1.485-2.234-.845-.017-1.549.956-1.574 2.172-.025 1.217.64 2.216 1.485 2.233.844.017 1.549-.955 1.574-2.171zm11.123 3.767c.024-1.216-.64-2.216-1.485-2.233-.845-.017-1.549.955-1.574 2.171-.025 1.217.64 2.217 1.485 2.234.844.017 1.549-.956 1.574-2.172zm5.693 1.996c.025-1.216-.64-2.216-1.485-2.233-.844-.017-1.549.955-1.574 2.172-.024 1.216.64 2.216 1.485 2.233.845.017 1.549-.955 1.574-2.172z" fill="#D3E3FD"/><defs><clipPath id="clip0_1388_143464"><path fill="#fff" d="M0 0h304v160H0z"/></clipPath></defs></svg>