<svg width="178" height="48" viewBox="0 0 178 60" fill="none" xmlns="http://www.w3.org/2000/svg"><path d="M158.189 13.508h5.837V4.066h5.573v9.442h8.197v5.05h-8.197v18.23c0 1.748.35 3.103 1.05 4.065.743.962 1.945 1.442 3.606 1.442a6.01 6.01 0 002.033-.328 8.149 8.149 0 001.639-.786v5.442a8.073 8.073 0 01-1.901.59c-.656.175-1.552.263-2.689.263-2.798 0-5.049-.81-6.754-2.426-1.705-1.662-2.557-3.957-2.557-6.886V18.557h-5.837v-5.049zM139.38 48c-3.235 0-6.12-.765-8.656-2.295-2.492-1.53-4.459-3.628-5.902-6.295-1.398-2.667-2.098-5.705-2.098-9.115 0-3.191.656-6.142 1.967-8.852 1.356-2.71 3.235-4.875 5.64-6.492 2.448-1.661 5.311-2.492 8.59-2.492 3.322 0 6.164.743 8.525 2.23 2.404 1.442 4.24 3.453 5.508 6.032 1.311 2.58 1.967 5.53 1.967 8.853 0 .306-.022.612-.066.918 0 .306-.021.568-.065.787h-26.492c.131 2.404.678 4.437 1.639 6.098 1.093 1.88 2.492 3.279 4.197 4.197 1.749.918 3.563 1.377 5.443 1.377 2.448 0 4.459-.568 6.032-1.705a13.539 13.539 0 003.869-4.328l4.722 2.295c-1.312 2.536-3.192 4.634-5.64 6.295-2.448 1.661-5.508 2.492-9.18 2.492zm-10.754-21.31h20.393c-.043-.919-.262-1.902-.655-2.951-.35-1.093-.94-2.099-1.771-3.017-.787-.961-1.814-1.727-3.082-2.295-1.224-.612-2.754-.918-4.59-.918-2.186 0-4.088.569-5.705 1.705-1.574 1.093-2.776 2.601-3.607 4.525a12.984 12.984 0 00-.983 2.95zm-17.642 20.261V0h5.574v46.951h-5.574zm-13.832 0V0h5.574v46.951h-5.574zM73.003 48c-2.492 0-4.677-.48-6.557-1.443-1.88-.961-3.366-2.273-4.46-3.934-1.048-1.705-1.573-3.628-1.573-5.77 0-2.449.634-4.503 1.902-6.164 1.268-1.705 2.972-2.973 5.115-3.804 2.142-.874 4.502-1.311 7.081-1.311 1.487 0 2.864.13 4.132.393 1.267.219 2.36.503 3.278.853.962.306 1.683.612 2.164.918v-2.033c0-2.536-.896-4.546-2.688-6.033-1.793-1.486-3.978-2.23-6.558-2.23-1.836 0-3.563.416-5.18 1.247-1.574.786-2.82 1.901-3.738 3.344l-4.196-3.148a13.482 13.482 0 013.278-3.41c1.312-.961 2.798-1.704 4.46-2.23a18.182 18.182 0 015.376-.786c4.547 0 8.11 1.202 10.689 3.607 2.58 2.404 3.869 5.639 3.869 9.704v21.18h-5.312v-4.786h-.262c-.568.962-1.377 1.902-2.426 2.82-1.05.874-2.295 1.595-3.738 2.164-1.399.568-2.95.852-4.656.852zm.525-4.918c1.923 0 3.672-.48 5.246-1.443a10.934 10.934 0 003.869-3.868c.961-1.618 1.442-3.388 1.442-5.312-1.005-.7-2.273-1.268-3.803-1.705-1.486-.437-3.126-.656-4.918-.656-3.191 0-5.53.656-7.017 1.968-1.486 1.311-2.229 2.929-2.229 4.852 0 1.836.7 3.322 2.098 4.46 1.4 1.136 3.17 1.704 5.312 1.704zm-60.807 3.869L0 0h6.164l8.525 34.492.787 3.213h.262l.983-3.213L27.213 0h5.77l10.034 34.492.983 3.213h.263l.786-3.213L53.51 0h6.163L47.017 46.951h-5.77l-9.968-33.967-1.05-3.672h-.262l-1.114 3.672L18.492 46.95h-5.77z" fill="#1F1F1F"/></svg>